# xmcd
#
# Track frame offsets:
# 150
# 13779
# 34100
# 52333
# 70701
# 91426
# 107645
# 126705
# 147822
# 167191
# 184556
# 203851
# 223953
# 244086
# 260113
#
# Disc length: 3678 seconds
#
#
# Revision: 0
# Processed by: cddbd v1.5.2PL0 Copyright (c) Steve Scherf et al.
# Submitted via: FreeRIP 2.945 
#
DISCID=ec0e5c0f
DTITLE=Reba McEntire - I'll Be
DYEAR=1900
DGENRE=Country
TTITLE0=If I Fell
TTITLE1=I'll Be
TTITLE2=What If
TTITLE3=By the Time I Get to Phoenix
TTITLE4=On My Own
TTITLE5=You're No Good
TTITLE6=Starting Over Again
TTITLE7=Please Come To Boston
TTITLE8=Ring on Her Finger, Time on Her Hands
TTITLE9=New Fool At An Old Game
TTITLE10=I Won't Mention It Again
TTITLE11=Five Hundred Miles Away From Home
TTITLE12=Talking In Your Sleep
TTITLE13=What Do You Say
TTITLE14=We're So Good Together
EXTD=
EXTT0=
EXTT1=
EXTT2=
EXTT3=
EXTT4=
EXTT5=
EXTT6=
EXTT7=
EXTT8=
EXTT9=
EXTT10=
EXTT11=
EXTT12=
EXTT13=
EXTT14=
PLAYORDER=
